<?xml version="1.0" encoding="utf-8"?>
<!-- Generator: Adobe Illustrator 23.0.5, SVG Export Plug-In . SVG Version: 6.00 Build 0)  -->
<svg version="1.1" id="Layer_1" xmlns="http://www.w3.org/2000/svg" xmlns:xlink="http://www.w3.org/1999/xlink" x="0px" y="0px"
	 viewBox="0 0 1080 1080" style="enable-background:new 0 0 1080 1080;" xml:space="preserve">
<style type="text/css">
	.st0{fill:#080A0B;}
	.st1{fill:#F0B51B;}
</style>
<g>
	<path class="st0" d="M771.02,356.98c-5.94-14.07-12.89-27.39-22.66-39.13c-22.8-27.41-52.84-43.15-86.28-52.94
		c-55.73-16.32-112.48-16.25-169.35-8.12c-95.39,13.63-183.24,46.7-261.4,103.89c-2.6,1.91-5.07,4-9.28,7.35
		c68.04,0,134.08,0,201.55,0c-7.14,26.7-14.02,52.16-20.71,77.67c-1.53,5.83-5.94,4.2-9.62,4.2c-52.65,0.05-105.3,0-157.96,0.04
		c-7.32,0-14.69-0.11-21.97,0.55c-14.72,1.33-25.66,8.78-32.23,22.04c-5.05,10.2-8.05,21.2-9.36,32.44
		c-1.93,16.59,5.63,25.3,22.4,25.9c14.98,0.54,29.99,0.18,44.98,0.26c31.64,0.17,63.31-0.89,94.81,3.39
		c41.61,5.66,62.42,31.81,56.71,73.54c-5.48,40.03-14.95,79.06-35.74,114.4c-8.51,14.46-19.05,27.26-32.45,37.55
		c-14.23,10.93-30.25,16.14-48.25,16.11c-88.31-0.12-176.62-0.14-264.93,0.07c-8.11,0.02-11.13-0.63-8.15-10.19
		c6.52-20.93,11.66-42.29,17.03-63.56c1.51-5.96,3.9-8.21,10.61-8.18c67.31,0.33,134.63,0.2,201.94,0.2
		c25.6,0,37.66-9.24,44.14-34.24c1.83-7.07,3.33-14.29,4.19-21.54c1.21-10.17-2.99-15.49-12.87-18.14
		c-7.2-1.93-14.52-1.78-21.84-1.79c-33.32-0.06-66.65,0.07-99.97-0.15c-15.72-0.1-31.19-2.31-46.05-7.78
		c-23.72-8.74-37.94-25.9-38.1-50.94c-0.34-53.14,13.01-102.99,45.09-146.03c23.85-32,59.21-42.51,97.35-44.84
		c8.46-0.52,14.56-3,20.88-8.81c88.13-81.03,187.11-143.7,303.32-176.34c39.69-11.15,80.23-17.06,121.45-9.69
		c64.48,11.53,103.65,50.06,117.34,114.55C770.4,311.16,772.71,333.81,771.02,356.98z"/>
	<path class="st1" d="M625.32,773.89c29.04-29.05,55.87-58.78,80.12-90.86c48.42-64.04,87.22-133.24,112.62-209.52
		c17.88-53.72,28.9-108.66,23.56-165.74c-4.36-46.62-19.1-89.03-52.86-122.91c-28.6-28.7-63.51-45.89-103-54.32
		c-17.12-3.65-34.39-6.31-54.79-8.38c15.65-8.58,29.89-11.74,44.04-14.78c39.57-8.5,79.56-13.01,120-8.56
		c60.04,6.61,111.85,28.6,145.87,81.68c16.47,25.71,24.73,54.3,26.63,84.66c3.7,59.4-12.4,114.53-37.12,167.63
		c-31.15,66.92-74.7,125.44-123.61,180.16c-51.4,57.5-108.77,108.65-169.01,156.62C634.81,771.94,631.96,776.67,625.32,773.89z"/>
	<path class="st0" d="M607.89,449.92c-5.16,0-9.44,0-13.72,0c-40.98,0.02-81.97-0.1-122.95,0.19c-6.7,0.05-8.81-1.09-6.77-8.24
		c6.3-22.05,12.14-44.23,17.77-66.46c1.38-5.45,3.65-7.16,9.39-7.15c78.3,0.21,156.61,0.18,234.91,0.05c5.7-0.01,8.43,0.31,6.5,7.47
		c-27.27,100.73-54.06,201.59-81.46,302.29c-6.88,25.28-18.53,48.39-36.92,67.67c-18.92,19.84-41.99,30.16-69.33,30.25
		c-53.98,0.18-107.96-0.14-161.93,0.14c-7.35,0.04-8.16-1.53-6.18-8.35c6.19-21.38,12.02-42.9,17.05-64.58
		c1.77-7.64,5.36-8.93,12.25-8.87c35.65,0.29,71.31,0.14,106.96,0.13c21.2-0.01,30.86-7.26,36.39-27.79
		c16.68-61.95,33.25-123.93,49.86-185.9C602.36,470.87,604.97,460.96,607.89,449.92z"/>
	<path class="st0" d="M372.66,982.13c161.06-98.34,317.96-202.6,456.02-332.58c63.51-59.78,121.51-124.34,164.49-200.95
		c28.33-50.49,47.97-103.77,48.61-162.64c0.39-35.9-7.4-69.96-22.66-102.38c-1.22-2.6-2.45-5.21-4.37-9.29
		c5.48,1.92,6.91,5.77,9.01,8.68c62.15,86.51,71.1,179.96,35.14,278.66c-27.28,74.88-73.67,137.44-128.7,194.01
		c-74.73,76.82-162.5,136.11-255.27,188.51c-93.87,53.02-192.02,96.96-292.28,136.32C379.47,981.72,376.26,984.18,372.66,982.13z"/>
</g>
</svg>
